<?xml version="1.0" encoding="utf-8"?>
<!-- Generator: Adobe Illustrator 27.5.0, SVG Export Plug-In . SVG Version: 6.00 Build 0)  -->
<svg version="1.1" xmlns="http://www.w3.org/2000/svg" xmlns:xlink="http://www.w3.org/1999/xlink" x="0px" y="0px"
	 viewBox="0 0 3710 3710" style="enable-background:new 0 0 3710 3710;" xml:space="preserve">
<g id="Background">
	<g>
		<g>
			<rect style="fill:#FFFFFF;" width="3710" height="3710"/>
		</g>
	</g>
</g>
<g id="Illustration">
	<g>
		<linearGradient id="SVGID_1_" gradientUnits="userSpaceOnUse" x1="3490.8303" y1="3642.5845" x2="1550.2318" y2="1576.7866">
			<stop  offset="0" style="stop-color:#DAE3FE"/>
			<stop  offset="1" style="stop-color:#E9EFFD"/>
		</linearGradient>
		<path style="fill:url(#SVGID_1_);" d="M2906.509,2815.353c-71.639,73.843-135.739,117.25-184.816,150.02
			c-478.64,319.593-1027.457,281.66-1196.619,250.176c-272.922-50.796-501.627-140.813-699.567-319.644
			c-449.781-406.359-427.904-1254.054-84.217-1779.164c40.751-62.263,383.918-570.943,932.241-642.62
			c13.411-1.753,23.418-2.752,32.182-3.679c84.824-8.981,610.463-56.381,1039.069,302.706
			c61.353,51.401,170.54,137.873,251.646,285.522C3286.708,1587.099,3332.271,2376.494,2906.509,2815.353z"/>
		<g>
			<g>
				<path style="fill:#91B3FA;" d="M2882.29,1588.337c-0.817-3.531-1.644-7.063-2.502-10.594
					c-129.595-533.517-671.889-859.81-1211.248-728.795l237.222,976.596L2882.29,1588.337z"/>
				<path style="fill:#91B3FA;" d="M1902.86,1821.753l950.655,326.392c59.064-171.501,72.446-361.082,28.942-550.901
					c-1.37-5.978-2.809-11.922-4.28-17.851L1902.86,1821.753z"/>
				<path style="fill:#7D97F4;" d="M1905.749,1825.545l193.2,986.232c6.186-1.214,12.372-2.467,18.561-3.801
					c356.784-76.904,628.143-334.425,738.904-656.045L1905.749,1825.545z"/>
				
					<linearGradient id="SVGID_00000156549408533419988580000003651665690747666322_" gradientUnits="userSpaceOnUse" x1="1419.423" y1="611.4937" x2="1132.5048" y2="2906.845">
					<stop  offset="0" style="stop-color:#FF928E"/>
					<stop  offset="1" style="stop-color:#FE7062"/>
				</linearGradient>
				<path style="fill:url(#SVGID_00000156549408533419988580000003651665690747666322_);" d="M1782.214,1744.126l-200.631-972.228
					c-453.648,93.616-772.206,479.359-800.028,920.388l995.121,58.245C1780.18,1750.736,1782.924,1747.562,1782.214,1744.126z"/>
				
					<linearGradient id="SVGID_00000037668766302997194190000004337277222757263787_" gradientUnits="userSpaceOnUse" x1="3439.2061" y1="3215.4836" x2="1577.5735" y2="2214.606">
					<stop  offset="0" style="stop-color:#4F52FF"/>
					<stop  offset="1" style="stop-color:#4042E2"/>
				</linearGradient>
				<path style="fill:url(#SVGID_00000037668766302997194190000004337277222757263787_);" d="M1906.364,1821.338l-1002.79-33.328
					c-4.294,87.851,3.608,161.481,23.615,251.491c93.338,419.91,436.811,719.491,838.849,777.015L1906.364,1821.338z"/>
				
					<linearGradient id="SVGID_00000088107151547024239100000005678654820777576106_" gradientUnits="userSpaceOnUse" x1="2135.2058" y1="2180.8721" x2="3269.5391" y2="986.4865">
					<stop  offset="0" style="stop-color:#4F52FF"/>
					<stop  offset="1" style="stop-color:#4042E2"/>
				</linearGradient>
				<path style="fill:url(#SVGID_00000088107151547024239100000005678654820777576106_);" d="M1757.601,2819.534
					c110.943,16.819,226.506,15.181,342.67-7.493l0,0l-192.164-986.434L1757.601,2819.534z"/>
			</g>
			<g style="opacity:0.61;">
				<path style="fill:#FFFFFF;" d="M1547.448,2727.305c-0.847,0-1.71-0.163-2.545-0.507
					c-138.797-57.311-264.246-147.249-362.786-260.087c-101.824-116.595-175.089-258.279-211.879-409.732
					c-3.297-13.58-6.337-27.358-9.035-40.951c-0.717-3.615,1.632-7.127,5.245-7.846c3.636-0.717,7.129,1.634,7.845,5.246
					c2.662,13.412,5.659,27.005,8.911,40.402c36.288,149.378,108.546,289.116,208.963,404.104
					c97.192,111.294,220.927,200,357.831,256.529c3.405,1.406,5.027,5.307,3.62,8.714
					C1552.557,2725.751,1550.071,2727.305,1547.448,2727.305z"/>
			</g>
			<g style="opacity:0.61;">
				<path style="fill:#FFFFFF;" d="M2272.962,2731.601c-2.655,0-5.167-1.595-6.207-4.213c-1.359-3.426,0.316-7.305,3.743-8.663
					c248.239-98.524,445.584-298.842,541.43-549.591c1.313-3.444,5.17-5.169,8.614-3.851c3.444,1.316,5.167,5.172,3.851,8.615
					c-97.175,254.23-297.27,457.334-548.975,557.231C2274.614,2731.449,2273.78,2731.601,2272.962,2731.601z"/>
			</g>
			<g style="opacity:0.61;">
				<path style="fill:#FFFFFF;" d="M2686.881,1252.228c-2.023,0-4.021-0.914-5.33-2.652
					c-119.936-158.852-283.759-275.053-473.766-336.039c-3.509-1.126-5.441-4.884-4.313-8.393c1.127-3.506,4.874-5.446,8.393-4.314
					c192.64,61.832,358.737,179.645,480.334,340.705c2.222,2.94,1.639,7.125-1.303,9.346
					C2689.692,1251.789,2688.278,1252.228,2686.881,1252.228z"/>
			</g>
			<g style="opacity:0.74;">
				<path style="fill:#FFFFFF;" d="M1327.812,1687.635c-0.143,0-0.29-0.005-0.437-0.015l-510.573-32.929l1.117-7.212
					c13.436-86.57,35.539-170.389,69.56-263.787c1.261-3.465,5.099-5.242,8.552-3.986c3.463,1.263,5.245,5.091,3.985,8.554
					c-32.766,89.96-54.371,170.909-67.768,254.055l495.986,31.989c3.678,0.236,6.467,3.41,6.229,7.088
					C1334.236,1684.922,1331.301,1687.635,1327.812,1687.635z"/>
			</g>
			<g style="opacity:0.74;">
				<path style="fill:#FFFFFF;" d="M1728.287,1713.435c-0.238,0-0.476-0.008-0.717-0.024l-104.151-6.738
					c-3.678-0.238-6.467-3.411-6.229-7.088c0.238-3.68,3.496-6.472,7.09-6.228l100.717,6.514l-108.321-507.186
					c-0.769-3.605,1.528-7.15,5.131-7.92c3.597-0.767,7.148,1.526,7.92,5.132l109.041,510.555c0.71,3.317-0.156,6.694-2.375,9.263
					C1734.331,1712.103,1731.408,1713.435,1728.287,1713.435z M1725.717,1703.243h0.036H1725.717z"/>
			</g>
		</g>
		<g>
			<g>
				
					<linearGradient id="SVGID_00000150803921627984196770000004783577182096944008_" gradientUnits="userSpaceOnUse" x1="2929.2275" y1="953.6778" x2="2080.2908" y2="1784.1594">
					<stop  offset="0" style="stop-color:#2B3582"/>
					<stop  offset="1" style="stop-color:#150E42"/>
				</linearGradient>
				<polygon style="fill:url(#SVGID_00000150803921627984196770000004783577182096944008_);" points="1912.365,1612.502 
					1907.569,1603.718 2232.067,1426.414 2533.621,1558.965 2792.504,1305.031 2793.029,1304.72 3097.091,1125.272 
					3102.18,1133.893 2798.642,1313.03 2535.797,1570.854 2232.546,1437.557 				"/>
			</g>
			
				<linearGradient id="SVGID_00000090283617238997538800000014310643558991401378_" gradientUnits="userSpaceOnUse" x1="1965.6198" y1="1553.666" x2="1882.7665" y2="1634.718">
				<stop  offset="0" style="stop-color:#09005D"/>
				<stop  offset="1" style="stop-color:#1A0F91"/>
			</linearGradient>
			
				<circle style="fill:url(#SVGID_00000090283617238997538800000014310643558991401378_);" cx="1909.967" cy="1608.109" r="34.893"/>
			
				<linearGradient id="SVGID_00000026841664475123278910000003047213341942958512_" gradientUnits="userSpaceOnUse" x1="2287.9604" y1="1377.5419" x2="2205.1074" y2="1458.5939">
				<stop  offset="0" style="stop-color:#09005D"/>
				<stop  offset="1" style="stop-color:#1A0F91"/>
			</linearGradient>
			
				<circle style="fill:url(#SVGID_00000026841664475123278910000003047213341942958512_);" cx="2232.308" cy="1431.985" r="34.893"/>
			
				<linearGradient id="SVGID_00000044886724730427020590000016317997620075140511_" gradientUnits="userSpaceOnUse" x1="2590.3628" y1="1503.8197" x2="2507.5095" y2="1584.8717">
				<stop  offset="0" style="stop-color:#09005D"/>
				<stop  offset="1" style="stop-color:#1A0F91"/>
			</linearGradient>
			<circle style="fill:url(#SVGID_00000044886724730427020590000016317997620075140511_);" cx="2534.71" cy="1558.263" r="34.893"/>
			
				<linearGradient id="SVGID_00000181784234292515527480000006266142788184479159_" gradientUnits="userSpaceOnUse" x1="2842.9182" y1="1254.587" x2="2760.0652" y2="1335.639">
				<stop  offset="0" style="stop-color:#09005D"/>
				<stop  offset="1" style="stop-color:#1A0F91"/>
			</linearGradient>
			<circle style="fill:url(#SVGID_00000181784234292515527480000006266142788184479159_);" cx="2787.265" cy="1309.03" r="34.893"/>
			
				<linearGradient id="SVGID_00000138549236027683514470000009041695418396722857_" gradientUnits="userSpaceOnUse" x1="3155.2898" y1="1075.1395" x2="3072.4368" y2="1156.1915">
				<stop  offset="0" style="stop-color:#09005D"/>
				<stop  offset="1" style="stop-color:#1A0F91"/>
			</linearGradient>
			
				<circle style="fill:url(#SVGID_00000138549236027683514470000009041695418396722857_);" cx="3099.637" cy="1129.583" r="34.892"/>
		</g>
		<g>
			<g>
				<g>
					
						<linearGradient id="SVGID_00000000938663557669830830000013312693894163562937_" gradientUnits="userSpaceOnUse" x1="1981.4868" y1="3223.9534" x2="2170.4924" y2="3223.9534" gradientTransform="matrix(1 0 0 1 -1140.7335 0)">
						<stop  offset="0" style="stop-color:#4F52FF"/>
						<stop  offset="1" style="stop-color:#4042E2"/>
					</linearGradient>
					<path style="fill:url(#SVGID_00000000938663557669830830000013312693894163562937_);" d="M1024.422,3214.812
						c-32.379,2.799-88.574,7.345-132.876,9.295c-26.631,1.172-41.963-1.436-50.792-4.97c0.015,0.995,0.043,1.936,0.082,2.81
						c0.209,4.661,3.998,8.391,8.706,8.654c83.711,4.672,150.285,1.617,173.987,0.175c4.901-0.299,7.821-5.625,5.315-9.802
						C1027.589,3218.883,1026.071,3216.835,1024.422,3214.812z"/>
					
						<linearGradient id="SVGID_00000182507030902682893830000014244356913674183853_" gradientUnits="userSpaceOnUse" x1="1981.476" y1="3186.9106" x2="2165.1555" y2="3186.9106" gradientTransform="matrix(1 0 0 1 -1140.7335 0)">
						<stop  offset="0" style="stop-color:#09005D"/>
						<stop  offset="1" style="stop-color:#1A0F91"/>
					</linearGradient>
					<path style="fill:url(#SVGID_00000182507030902682893830000014244356913674183853_);" d="M891.546,3224.106
						c44.302-1.95,100.497-6.496,132.876-9.295c-31.834-39.057-132.876-65.381-132.876-65.381h-28.537
						c-19.628,28.293-22.47,55.23-22.255,69.706C849.583,3222.671,864.915,3225.279,891.546,3224.106z"/>
					
						<linearGradient id="SVGID_00000052801903754187240060000006509007031332996762_" gradientUnits="userSpaceOnUse" x1="1998.9365" y1="3135.1941" x2="2052.1753" y2="3135.1941" gradientTransform="matrix(1 0 0 1 -1140.7335 0)">
						<stop  offset="0" style="stop-color:#FEBBBA"/>
						<stop  offset="1" style="stop-color:#FF928E"/>
					</linearGradient>
					<path style="fill:url(#SVGID_00000052801903754187240060000006509007031332996762_);" d="M858.203,3102.842l2.67,52.846
						c0.289,5.723,4.573,10.531,10.304,11.351c5.702,0.815,13.339,0.919,21.437-1.776c4.982-1.658,8.681-5.856,9.599-10.977
						l9.228-51.444H858.203z"/>
				</g>
				<g>
					<g>
						
							<linearGradient id="SVGID_00000047746709450693560750000008438700346919540383_" gradientUnits="userSpaceOnUse" x1="1604.688" y1="3219.8772" x2="1677.118" y2="3219.8772" gradientTransform="matrix(1 0 0 1 -1140.7335 0)">
							<stop  offset="0" style="stop-color:#4F52FF"/>
							<stop  offset="1" style="stop-color:#4042E2"/>
						</linearGradient>
						<path style="fill:url(#SVGID_00000047746709450693560750000008438700346919540383_);" d="M487.54,3223.71
							c-14.042-1.958-20.394-9.253-23.058-17.051c-0.018,0.07-0.035,0.14-0.053,0.21c-2.065,8.226,2.723,16.751,12.298,20.806
							c11.572,4.9,24.225,5.736,34.049,5.331c10.539-0.434,20.213-4.795,25.53-11.775l0.08-0.105
							C525.806,3226.36,510.956,3226.976,487.54,3223.71z"/>
						
							<linearGradient id="SVGID_00000062912780004746378240000016641805855412332989_" gradientUnits="userSpaceOnUse" x1="1605.2148" y1="3164.1082" x2="1711.5281" y2="3164.1082" gradientTransform="matrix(1 0 0 1 -1140.7335 0)">
							<stop  offset="0" style="stop-color:#09005D"/>
							<stop  offset="1" style="stop-color:#1A0F91"/>
						</linearGradient>
						<path style="fill:url(#SVGID_00000062912780004746378240000016641805855412332989_);" d="M553.742,3102.503h-23.534
							c-35.848-0.732-58.359,74.876-65.727,104.157c2.664,7.798,9.017,15.092,23.058,17.051c23.417,3.266,38.266,2.649,48.845-2.585
							c19.367-25.485,28.968-62.811,33.584-84.594C575.217,3111.757,553.742,3102.503,553.742,3102.503z"/>
					</g>
					
						<linearGradient id="SVGID_00000125592951067308641690000012492200688080623250_" gradientUnits="userSpaceOnUse" x1="1660.4747" y1="3090.8118" x2="1724.1008" y2="3090.8118" gradientTransform="matrix(1 0 0 1 -1140.7335 0)">
						<stop  offset="0" style="stop-color:#FEBBBA"/>
						<stop  offset="1" style="stop-color:#FF928E"/>
					</linearGradient>
					<path style="fill:url(#SVGID_00000125592951067308641690000012492200688080623250_);" d="M533.233,3053.453l-13.069,51.977
						c-1.602,6.373,1.448,12.965,7.34,15.988c7.311,3.752,17.603,7.694,27.063,6.553c4.448-0.537,8.144-3.67,9.614-7.859
						l19.186-54.685L533.233,3053.453z"/>
				</g>
				
					<linearGradient id="SVGID_00000098206340751706297250000009440838216959902102_" gradientUnits="userSpaceOnUse" x1="-136.0961" y1="3803.3372" x2="1158.3724" y2="2402.1062">
					<stop  offset="0" style="stop-color:#4F52FF"/>
					<stop  offset="1" style="stop-color:#4042E2"/>
				</linearGradient>
				<path style="fill:url(#SVGID_00000098206340751706297250000009440838216959902102_);" d="M517.645,3068.476
					c16.259,14.423,69.144,16.326,69.144,16.326c190.498-457.215,268.425-522.169,268.425-522.169
					c-27.506,172.574-4.435,554.631-4.435,554.631c31.436,13.872,71.964,0,71.964,0c2.553-282.526,45.979-528.916,97.279-723.165
					c-128.754-2.894-197.224-46.953-219.581-64.636C693.116,2502.492,517.645,3068.476,517.645,3068.476z"/>
				
					<linearGradient id="SVGID_00000152232876439330926750000006602032014571060642_" gradientUnits="userSpaceOnUse" x1="-719.244" y1="4263.8188" x2="-82.0186" y2="3770.0527" gradientTransform="matrix(1 0 0 1 -1140.7335 0)">
					<stop  offset="0" style="stop-color:#FF928E"/>
					<stop  offset="1" style="stop-color:#FE7062"/>
				</linearGradient>
				<path style="fill:url(#SVGID_00000152232876439330926750000006602032014571060642_);" d="M833.14,1803.664
					c-24.37,121.56-15.636,339.129-9.899,438.368c1.612,27.893-17.859,66.562-33.598,92.942c-2.469,4.138-0.945,9.436,3.341,11.638
					c26.35,13.542,115.617,55.514,219.075,60.736c6.898,0.348,13.058-4.351,14.845-11.023
					c76.743-286.548,165.88-469.654,165.88-469.654C1094.373,1769.517,833.14,1803.664,833.14,1803.664z"/>
				
					<linearGradient id="SVGID_00000011025276091870789800000012064422560246957719_" gradientUnits="userSpaceOnUse" x1="871.4048" y1="1975.7365" x2="891.4226" y2="2299.3542">
					<stop  offset="0" style="stop-color:#4F52FF"/>
					<stop  offset="1" style="stop-color:#4042E2"/>
				</linearGradient>
				<path style="fill:url(#SVGID_00000011025276091870789800000012064422560246957719_);" d="M868.213,2551.809
					c-1.081,0-2.178-0.292-3.17-0.894c-2.875-1.758-3.786-5.505-2.038-8.377c1.025-1.686,25.667-41.515,75.532-65.573
					c3.03-1.454,6.679-0.197,8.147,2.842c1.463,3.032,0.191,6.685-2.845,8.144c-46.487,22.432-70.179,60.551-70.414,60.932
					C872.276,2550.767,870.268,2551.809,868.213,2551.809z"/>
				<g>
					
						<linearGradient id="SVGID_00000072238747406584560100000000415181133886599354_" gradientUnits="userSpaceOnUse" x1="1951.9749" y1="2163.3804" x2="1725.4767" y2="2363.9495" gradientTransform="matrix(1 0 0 1 -1140.7335 0)">
						<stop  offset="0" style="stop-color:#FEBBBA"/>
						<stop  offset="1" style="stop-color:#FF928E"/>
					</linearGradient>
					<path style="fill:url(#SVGID_00000072238747406584560100000000415181133886599354_);" d="M680.278,2152.538
						c7.828,56.629,30.956,118.397,77.223,184.007l17.588-14.338c0,0-20.303-82.375-8.761-175.861
						C737.787,2140.779,704.08,2146.518,680.278,2152.538z"/>
					
						<linearGradient id="SVGID_00000043441598653415706610000000915282335067194262_" gradientUnits="userSpaceOnUse" x1="-829.5804" y1="4121.4292" x2="-192.3525" y2="3627.6611" gradientTransform="matrix(1 0 0 1 -1140.7335 0)">
						<stop  offset="0" style="stop-color:#FF928E"/>
						<stop  offset="1" style="stop-color:#FE7062"/>
					</linearGradient>
					<path style="fill:url(#SVGID_00000043441598653415706610000000915282335067194262_);" d="M860.36,1953.653l-27.22-149.989
						c0,0-181.87,139.019-152.862,348.874c23.802-6.021,57.509-11.759,86.049-6.192
						C774.642,2079.002,799.478,2005.894,860.36,1953.653z"/>
				</g>
				<g>
					
						<linearGradient id="SVGID_00000111149755400960631850000002097710976736668304_" gradientUnits="userSpaceOnUse" x1="-625.5339" y1="4384.7642" x2="11.6929" y2="3890.9968" gradientTransform="matrix(1 0 0 1 -1140.7335 0)">
						<stop  offset="0" style="stop-color:#FF928E"/>
						<stop  offset="1" style="stop-color:#FE7062"/>
					</linearGradient>
					<path style="fill:url(#SVGID_00000111149755400960631850000002097710976736668304_);" d="M1192.784,1926.671l-70.201,151.189
						c11.351,91.278,60.385,130.744,113.255,145.882c3.297-41.6,13.816-75.209,23.576-98.457
						C1191.86,2055.538,1192.784,1926.671,1192.784,1926.671z"/>
					
						<linearGradient id="SVGID_00000151520607161385839440000014424586319300390312_" gradientUnits="userSpaceOnUse" x1="2376.5713" y1="2182.3518" x2="2554.9475" y2="2182.3518" gradientTransform="matrix(1 0 0 1 -1140.7335 0)">
						<stop  offset="0" style="stop-color:#FEBBBA"/>
						<stop  offset="1" style="stop-color:#FF928E"/>
					</linearGradient>
					<path style="fill:url(#SVGID_00000151520607161385839440000014424586319300390312_);" d="M1259.414,2125.285
						c-9.761,23.248-20.279,56.857-23.576,98.457c141.057,54.729,178.376-51.41,178.376-51.41l-26.069-4.599
						C1329.274,2173.935,1288.151,2154.956,1259.414,2125.285z"/>
				</g>
				
					<linearGradient id="SVGID_00000146465498467477372910000015110604784794602655_" gradientUnits="userSpaceOnUse" x1="2203.1851" y1="1705.6658" x2="2201.2368" y2="2038.7703" gradientTransform="matrix(1 0 0 1 -1140.7335 0)">
					<stop  offset="0" style="stop-color:#FEBBBA"/>
					<stop  offset="1" style="stop-color:#FF928E"/>
				</linearGradient>
				<path style="fill:url(#SVGID_00000146465498467477372910000015110604784794602655_);" d="M1128.105,1740.016l-33.891,124.588
					c-3.807,13.996-18.946,21.512-32.414,16.128c-14.534-5.81-32.974-13.741-48.848-22.311
					c-16.945-9.148-22.246-30.945-11.52-46.938l70.462-105.063L1128.105,1740.016z"/>
			</g>
			
				<linearGradient id="SVGID_00000071560848209561579350000010036874225771165313_" gradientUnits="userSpaceOnUse" x1="1549.6099" y1="2129.1692" x2="558.7349" y2="2496.1592">
				<stop  offset="0" style="stop-color:#09005D"/>
				<stop  offset="1" style="stop-color:#1A0F91"/>
			</linearGradient>
			<path style="fill:url(#SVGID_00000071560848209561579350000010036874225771165313_);" d="M1478.864,2088.961l-868.433,316.075
				c-36.422,13.256-53.833,54.729-37.787,90.012l2.635,5.793c14.197,31.217,51.094,44.909,82.218,30.51l843.237-390.086
				L1478.864,2088.961z"/>
			
				<linearGradient id="SVGID_00000163050898338627527200000004041080241888945340_" gradientUnits="userSpaceOnUse" x1="2590.0652" y1="1898.8328" x2="3447.4636" y2="1898.8328" gradientTransform="matrix(1 0 0 1 -1140.7335 0)">
				<stop  offset="0" style="stop-color:#B37CFF"/>
				<stop  offset="1" style="stop-color:#F895E7"/>
			</linearGradient>
			
				<ellipse style="opacity:0.23;fill:url(#SVGID_00000163050898338627527200000004041080241888945340_);" cx="1878.031" cy="1898.833" rx="428.699" ry="420.966"/>
			
				<linearGradient id="SVGID_00000034060996238678860480000017469030163421927555_" gradientUnits="userSpaceOnUse" x1="2541.7378" y1="1898.8326" x2="3495.791" y2="1898.8326" gradientTransform="matrix(1 0 0 1 -1140.7335 0)">
				<stop  offset="0" style="stop-color:#09005D"/>
				<stop  offset="1" style="stop-color:#1A0F91"/>
			</linearGradient>
			<path style="fill:url(#SVGID_00000034060996238678860480000017469030163421927555_);" d="M1878.031,1430.411
				c-263.454,0-477.026,209.72-477.026,468.421c0,258.703,213.572,468.422,477.026,468.422
				c263.455,0,477.027-209.719,477.027-468.422C2355.058,1640.131,2141.486,1430.411,1878.031,1430.411z M1878.031,2298.444
				c-224.754,0-406.953-178.911-406.953-399.612c0-220.699,182.2-399.612,406.953-399.612
				c224.755,0,406.954,178.913,406.954,399.612C2284.985,2119.533,2102.786,2298.444,1878.031,2298.444z"/>
			<path style="fill:#91B3FA;" d="M1437.273,1956.861c-1.594,0-2.975-1.182-3.178-2.801c-1.424-11.163-2.416-22.461-2.967-33.586
				c-0.085-1.767,1.28-3.272,3.043-3.356c2.102-0.127,3.28,1.276,3.365,3.043c0.534,10.959,1.517,22.092,2.916,33.094
				c0.22,1.754-1.017,3.356-2.772,3.581C1437.544,1956.852,1437.4,1956.861,1437.273,1956.861z M1440.544,1825.879
				c-0.186,0-0.373-0.017-0.568-0.051c-1.738-0.309-2.899-1.975-2.585-3.717c5.408-30.14,14.061-59.776,25.733-88.081l0.008-0.008
				c68.765-166.817,231.628-274.613,414.901-274.613c85.462,0,168.533,23.741,240.256,68.659c1.5,0.941,1.949,2.916,1.009,4.416
				c-0.924,1.509-2.907,1.954-4.416,1.017c-70.697-44.278-152.599-67.684-236.849-67.684c-180.671,0-341.203,106.24-408.976,270.655
				c-0.009,0.008-0.009,0.013-0.009,0.017c-11.502,27.881-20.028,57.068-25.351,86.75
				C1443.418,1824.79,1442.07,1825.879,1440.544,1825.879z"/>
			<g>
				
					<linearGradient id="SVGID_00000043441890786026204800000004324679532298460571_" gradientUnits="userSpaceOnUse" x1="1978.0668" y1="3449.8337" x2="1814.0975" y2="3666.7517" gradientTransform="matrix(0.9897 -0.1428 0.1428 0.9897 -1279.7882 -1480.9402)">
					<stop  offset="0" style="stop-color:#FEBBBA"/>
					<stop  offset="1" style="stop-color:#FF928E"/>
				</linearGradient>
				<path style="fill:url(#SVGID_00000043441890786026204800000004324679532298460571_);" d="M1202.251,1645.359
					c0.309,2.14-28.267,142.174-28.267,142.174l-79.611-18.016l7.366-136.748
					C1101.739,1632.769,1197.083,1609.541,1202.251,1645.359z"/>
				
					<linearGradient id="SVGID_00000059279009556555783750000013960094805808593554_" gradientUnits="userSpaceOnUse" x1="1021.0485" y1="1686.5908" x2="1589.9497" y2="1758.521">
					<stop  offset="0" style="stop-color:#09005D"/>
					<stop  offset="1" style="stop-color:#1A0F91"/>
				</linearGradient>
				<path style="fill:url(#SVGID_00000059279009556555783750000013960094805808593554_);" d="M1119.644,1663.241l-9.515,71.683
					c-0.122,0.919-0.121,1.827,0.01,2.745c0.803,5.619,4.983,24.748,24.293,19.278c17.522-4.964,33.587-9.232,44.684-5.838
					c4.983,1.524,7.989,6.571,6.946,11.676c-2.6,12.723-8.988,41.283-18.324,65.25c-1.895,4.864-7.221,7.417-12.232,5.956
					c-15.099-4.402-46.683-14.576-70.175-28.714c-3.183-1.916-5.079-5.377-4.923-9.089c0.764-18.096,2.88-73.106,1.099-88.526
					c-1.672-14.474-19.435-23.144-27.152-26.253c-2.53-1.019-4.514-3.013-5.525-5.546c-3.574-8.956-8.501-29.68,17.616-38.172
					c5.466-1.777,8.347-7.67,6.404-13.08c-3.868-10.769-5.499-27.203,14.705-36.257c20.536-9.203,35.872,1.744,44.153,10.641
					c3.348,3.597,8.721,4.146,12.876,1.521c2.365-1.495,5.412-1.985,9.094,0.309c4.961,3.091,11.53,0.984,14.09-4.27
					c4.918-10.094,14.94-20.906,35.045-17.463c35.675,6.11,39.715,45.642,30.304,68.807c-9.411,23.166-47.712,14.343-66.926,2.664
					c-14.609-8.88-33.559,0.428-41.804,5.399C1121.774,1657.536,1120.045,1660.218,1119.644,1663.241z"/>
				
					<linearGradient id="SVGID_00000052083742831811002780000005583337360067029159_" gradientUnits="userSpaceOnUse" x1="1737.9164" y1="3621.6157" x2="1869.4329" y2="3486.6833" gradientTransform="matrix(0.9897 -0.1428 0.1428 0.9897 -1279.7882 -1480.9402)">
					<stop  offset="0" style="stop-color:#FEBBBA"/>
					<stop  offset="1" style="stop-color:#FF928E"/>
				</linearGradient>
				<path style="fill:url(#SVGID_00000052083742831811002780000005583337360067029159_);" d="M1078.303,1733.797
					c0,0,14.666-41.069-0.402-51.127c-15.068-10.058-37.384-4.836-32.471,24.915
					C1051.542,1744.592,1078.303,1733.797,1078.303,1733.797z"/>
			</g>
			
				<linearGradient id="SVGID_00000049925975249124176410000003630686421823755917_" gradientUnits="userSpaceOnUse" x1="2041.4191" y1="2264.3879" x2="1814.9214" y2="2464.9565" gradientTransform="matrix(1 0 0 1 -1140.7335 0)">
				<stop  offset="0" style="stop-color:#FEBBBA"/>
				<stop  offset="1" style="stop-color:#FF928E"/>
			</linearGradient>
			<path style="fill:url(#SVGID_00000049925975249124176410000003630686421823755917_);" d="M767.836,2319.71l82.097-6.69
				l35.555,32.775c0,0-8.412,11.627-34.709,4.944c-26.297-6.683-62.32-8.323-62.32-8.323s-36.304,16.367-36.746-14.257
				L767.836,2319.71z"/>
			
				<linearGradient id="SVGID_00000136371670722129525050000002352839207615144336_" gradientUnits="userSpaceOnUse" x1="2535.9966" y1="2161.4028" x2="2599.8748" y2="2161.4028" gradientTransform="matrix(1 0 0 1 -1140.7335 0)">
				<stop  offset="0" style="stop-color:#FEBBBA"/>
				<stop  offset="1" style="stop-color:#FF928E"/>
			</linearGradient>
			<path style="fill:url(#SVGID_00000136371670722129525050000002352839207615144336_);" d="M1403.757,2191.751
				c7.1,5.547,31.425-6.034,46.31-14.04c7.255-3.902,10.768-12.385,8.278-20.237c-3.582-11.296-9.551-25.877-16.905-27.716
				C1429.238,2126.709,1374.499,2168.894,1403.757,2191.751z"/>
			<path style="fill:#91B3FA;" d="M627.568,2519.203c-0.348,0-0.703-0.055-1.051-0.174c-33.92-11.731-41.811-31.772-42.456-46.52
				c-0.932-21.554,12.612-41.557,33.691-49.779l104.278-40.663c1.619-0.644,3.492,0.165,4.145,1.822
				c0.644,1.648-0.169,3.509-1.822,4.153l-104.278,40.659c-18.52,7.226-30.42,24.716-29.606,43.528
				c0.805,18.562,13.638,32.268,38.15,40.739c1.67,0.581,2.56,2.403,1.975,4.077
				C630.136,2518.372,628.898,2519.203,627.568,2519.203z"/>
			<path style="fill:#91B3FA;" d="M755.315,2375.728c-1.28,0-2.492-0.775-2.983-2.038c-0.644-1.653,0.169-3.509,1.822-4.153
				l13.519-5.268c1.619-0.648,3.501,0.174,4.145,1.822c0.644,1.653-0.169,3.509-1.822,4.153l-13.519,5.268
				C756.095,2375.66,755.705,2375.728,755.315,2375.728z"/>
		</g>
		<g>
			
				<linearGradient id="SVGID_00000134944385723247526650000011124384277106879407_" gradientUnits="userSpaceOnUse" x1="-3736.0225" y1="3080.3306" x2="-4311.7144" y2="3706.5225" gradientTransform="matrix(-1 0 0 1 -1038.0688 0)">
				<stop  offset="0" style="stop-color:#4F52FF"/>
				<stop  offset="1" style="stop-color:#4042E2"/>
			</linearGradient>
			<path style="fill:url(#SVGID_00000134944385723247526650000011124384277106879407_);" d="M2879.931,3126.978
				c0,0,5.962,33.752,8.885,67.163c1.143,13.058-8.924,24.396-22.021,24.941c-44.493,1.853-139.666,5.457-173.818,3.933
				c-5.134-0.229-8.49-5.485-6.59-10.26c1.592-4.001,4.663-7.236,8.576-9.034l157.208-72.253L2879.931,3126.978z"/>
			
				<linearGradient id="SVGID_00000083811391884727570760000011728155945042967980_" gradientUnits="userSpaceOnUse" x1="-3922.8833" y1="3126.8391" x2="-3871.7476" y2="3126.8391" gradientTransform="matrix(-1 0 0 1 -1038.0688 0)">
				<stop  offset="0" style="stop-color:#FEBBBA"/>
				<stop  offset="1" style="stop-color:#FF928E"/>
			</linearGradient>
			<path style="fill:url(#SVGID_00000083811391884727570760000011728155945042967980_);" d="M2884.814,3107.146l-4.79,40.372
				c0,0-27.539,12.82-46.346-1.616l11.405-44.99L2884.814,3107.146z"/>
			
				<linearGradient id="SVGID_00000101093997198720430270000014619196664933783435_" gradientUnits="userSpaceOnUse" x1="-4044.1382" y1="2735.8386" x2="-3875.0581" y2="2735.8386" gradientTransform="matrix(-1 0 0 1 -1038.0688 0)">
				<stop  offset="0" style="stop-color:#09005D"/>
				<stop  offset="1" style="stop-color:#1A0F91"/>
			</linearGradient>
			<path style="fill:url(#SVGID_00000101093997198720430270000014619196664933783435_);" d="M2881.214,2348.146
				c2.069,10.543,11.106,526.113-44.005,757.157c-0.899,3.77,1.012,7.656,4.6,9.122c8.453,3.454,25.024,8.455,44.883,9.122
				c6.15,0.207,11.664-3.791,13.399-9.694c15.753-53.606,91.24-322.186,101.087-578.753c11.003-286.689,0-9.761,0-9.761
				l-6.454-177.213L2881.214,2348.146z"/>
			
				<linearGradient id="SVGID_00000179642446543247937610000011615392172255358103_" gradientUnits="userSpaceOnUse" x1="-3865.1694" y1="2961.5989" x2="-4440.8613" y2="3587.7905" gradientTransform="matrix(-1 0 0 1 -1038.0688 0)">
				<stop  offset="0" style="stop-color:#4F52FF"/>
				<stop  offset="1" style="stop-color:#4042E2"/>
			</linearGradient>
			<path style="fill:url(#SVGID_00000179642446543247937610000011615392172255358103_);" d="M3060.772,3144.586
				c0,0,9.49,17.039,18.678,62.317c1.659,8.177-4.054,16.003-12.357,16.819c-14.691,1.444-37.309,3.302-55.426,3.177
				c-8.352-0.058-14.87-7.33-13.863-15.621c2.007-16.527,8.258-43.641,27.572-64.775L3060.772,3144.586z"/>
			
				<linearGradient id="SVGID_00000144337953653986479320000016423504296583294653_" gradientUnits="userSpaceOnUse" x1="-4107.1758" y1="3124.2166" x2="-4063.0247" y2="3124.2166" gradientTransform="matrix(-1 0 0 1 -1038.0688 0)">
				<stop  offset="0" style="stop-color:#FEBBBA"/>
				<stop  offset="1" style="stop-color:#FF928E"/>
			</linearGradient>
			<path style="fill:url(#SVGID_00000144337953653986479320000016423504296583294653_);" d="M3069.107,3092.659l-11.192,61.053
				c0,0-11.066,8.231-32.959,2.264l5.343-65.69L3069.107,3092.659z"/>
			
				<linearGradient id="SVGID_00000137842667218384347210000007443005137024334769_" gradientUnits="userSpaceOnUse" x1="-4154.7637" y1="2730.3062" x2="-3914.7246" y2="2730.3062" gradientTransform="matrix(-1 0 0 1 -1038.0688 0)">
				<stop  offset="0" style="stop-color:#09005D"/>
				<stop  offset="1" style="stop-color:#1A0F91"/>
			</linearGradient>
			<path style="fill:url(#SVGID_00000137842667218384347210000007443005137024334769_);" d="M3099.344,2363.967
				c45.073,272.019-9.777,672.317-28.276,750.665c-1.133,4.796-5.004,8.471-9.865,9.278c-8.258,1.369-21.852,2.485-35.254-1.407
				c-4.617-1.341-7.862-5.506-8.051-10.311c-2.481-63.342,1.985-452.201-40.012-605.879c-2.129-7.789-6.885-14.58-13.465-19.258
				l-81.515-57.95l-6.25-93.671L3099.344,2363.967z"/>
			<g>
				
					<linearGradient id="SVGID_00000158709397977761671440000006644291192074158236_" gradientUnits="userSpaceOnUse" x1="2561.5588" y1="2602.6003" x2="3031.9482" y2="1892.0112">
					<stop  offset="0" style="stop-color:#FF928E"/>
					<stop  offset="1" style="stop-color:#FE7062"/>
				</linearGradient>
				<path style="fill:url(#SVGID_00000158709397977761671440000006644291192074158236_);" d="M2812.137,1848.543
					c135.075-2.232,284.116,35.467,284.116,35.467c40.263,234.934,7.04,505.914,7.04,505.914
					c-104.572,27.424-222.535-16.766-222.535-16.766c-17.381-98.197-98.473-374.556-98.473-374.556
					c-65.998-8.191-120.365-27.232-165.137-52.406c34.151-39.587,50.251-89.958,57.244-119.734
					C2722.149,1841.304,2770.475,1849.232,2812.137,1848.543z"/>
				
					<linearGradient id="SVGID_00000119081493070575560100000015329716717291296390_" gradientUnits="userSpaceOnUse" x1="-3712.4602" y1="1792.7717" x2="-3451.2168" y2="1792.7717" gradientTransform="matrix(-1 0 0 1 -1038.0688 0)">
					<stop  offset="0" style="stop-color:#FEBBBA"/>
					<stop  offset="1" style="stop-color:#FF928E"/>
				</linearGradient>
				<path style="fill:url(#SVGID_00000119081493070575560100000015329716717291296390_);" d="M2413.148,1649.584
					c13.269-16.026,30.063-8.445,30.063-8.445c19.878,83.965,124.103,152.045,231.181,185.323
					c-6.993,29.776-23.093,80.148-57.244,119.734C2439.443,1846.28,2413.148,1649.584,2413.148,1649.584z"/>
			</g>
			<g>
				
					<linearGradient id="SVGID_00000136412115126452140990000016654078677411467420_" gradientUnits="userSpaceOnUse" x1="13957.1914" y1="1748.9813" x2="14132.4922" y2="2147.8301" gradientTransform="matrix(1 0 0 1 -11485.8467 0)">
					<stop  offset="0" style="stop-color:#FEBBBA"/>
					<stop  offset="1" style="stop-color:#FF928E"/>
				</linearGradient>
				<path style="fill:url(#SVGID_00000136412115126452140990000016654078677411467420_);" d="M2416.369,1653.66
					c-1.388,4.413,14.69,11.135,24.156-6.918c0.331-8.652,5.593-45.717,0.423-52.766c-27.535-37.539-80.918-84.595-80.918-84.595
					c-9.022,8.902-1.589,17.648-1.589,17.648l25.896,26.978c-5.417,9.788-12.024,18.051-15.12,29.891
					c-2.345,8.966-0.911,18.548,3.618,26.708c4.546,8.19,10.748,18.836,16.61,27.167
					C2400.544,1653.541,2416.369,1653.66,2416.369,1653.66z"/>
				
					<linearGradient id="SVGID_00000038371716611931480250000000913342894351277473_" gradientUnits="userSpaceOnUse" x1="-3452.4709" y1="1616.1503" x2="-3379.3254" y2="1503.6888" gradientTransform="matrix(-1 0 0 1 -1038.0688 0)">
					<stop  offset="0" style="stop-color:#FEBBBA"/>
					<stop  offset="1" style="stop-color:#FF928E"/>
				</linearGradient>
				<path style="fill:url(#SVGID_00000038371716611931480250000000913342894351277473_);" d="M2395.666,1571.511l23.599,20.006
					l7.409,19.918l-21.041,23.342c0,0-7.074-39.521-12.333-48.075C2388.042,1578.148,2390.769,1574.012,2395.666,1571.511z"/>
			</g>
			
				<linearGradient id="SVGID_00000031179692799513130080000011761378543070627204_" gradientUnits="userSpaceOnUse" x1="2698.4067" y1="2693.1897" x2="3168.7969" y2="1982.5994">
				<stop  offset="0" style="stop-color:#FF928E"/>
				<stop  offset="1" style="stop-color:#FE7062"/>
			</linearGradient>
			<path style="fill:url(#SVGID_00000031179692799513130080000011761378543070627204_);" d="M3044.443,2014.802l51.81-130.792
				c0,0,126.167,85.725,146.916,194.417c-23.839,1.755-67.219,7.956-109.68,29.396
				C3124.159,2056.501,3044.443,2014.802,3044.443,2014.802z"/>
			
				<linearGradient id="SVGID_00000054235554856345550030000011770513897794377868_" gradientUnits="userSpaceOnUse" x1="-4284.1143" y1="2162.8157" x2="-3953.5088" y2="2162.8157" gradientTransform="matrix(-1 0 0 1 -1038.0688 0)">
				<stop  offset="0" style="stop-color:#FEBBBA"/>
				<stop  offset="1" style="stop-color:#FF928E"/>
			</linearGradient>
			<path style="fill:url(#SVGID_00000054235554856345550030000011770513897794377868_);" d="M2934.186,2137.874
				c0,0,141.655,80.057,189.451,11.698c9.924-14.194,12.296-28.301,9.852-41.749c42.461-21.44,85.84-27.641,109.68-29.396
				c6.256,32.766,2.949,67.615-16.305,102.838c-83.724,153.153-311.424-8.464-311.424-8.464L2934.186,2137.874z"/>
			<g>
				
					<linearGradient id="SVGID_00000006685942499584960780000011429963020373209993_" gradientUnits="userSpaceOnUse" x1="-3853.4888" y1="1927.7657" x2="-3671.7009" y2="2685.2173" gradientTransform="matrix(-1 0 0 1 -1038.0688 0)">
					<stop  offset="0" style="stop-color:#09005D"/>
					<stop  offset="1" style="stop-color:#1A0F91"/>
				</linearGradient>
				<path style="fill:url(#SVGID_00000006685942499584960780000011429963020373209993_);" d="M2951.207,2239.154l-77.31-269.983
					c-0.878-3.065-3.492-5.3-6.659-5.669c-14.007-1.634-54.595-6.223-101.457-10.186c-56.447-4.775-121.999-8.643-161.171-5.352
					c-5.569,0.468-8.934,6.358-6.458,11.368c22.275,45.066,113.902,228.384,159.786,288.436c1.52,1.99,3.871,3.153,6.375,3.13
					l179.372-1.669C2948.906,2249.179,2952.644,2244.172,2951.207,2239.154z"/>
				
					<linearGradient id="SVGID_00000177445601496095377720000003606771341114729612_" gradientUnits="userSpaceOnUse" x1="-3739.6724" y1="1808.3705" x2="-3778.3884" y2="1978.3842" gradientTransform="matrix(-1 0 0 1 -1038.0688 0)">
					<stop  offset="0" style="stop-color:#4F52FF"/>
					<stop  offset="1" style="stop-color:#4042E2"/>
				</linearGradient>
				<path style="fill:url(#SVGID_00000177445601496095377720000003606771341114729612_);" d="M2757.762,1929.909l-56.052-9.339
					c-2.985-0.498-5.43,2.355-4.482,5.229l5.549,16.813c0.483,1.464,1.76,2.523,3.288,2.727l53.938,7.205
					c2.791,0.373,5.091-2.163,4.449-4.904l-3.435-14.679C2760.648,1931.379,2759.364,1930.175,2757.762,1929.909z"/>
				
					<linearGradient id="SVGID_00000066511989386264108060000003199338766028816307_" gradientUnits="userSpaceOnUse" x1="-3759.9346" y1="1879.6858" x2="-3778.4509" y2="1990.7842" gradientTransform="matrix(-1 0 0 1 -1038.0688 0)">
					<stop  offset="0" style="stop-color:#4F52FF"/>
					<stop  offset="1" style="stop-color:#4042E2"/>
				</linearGradient>
				<path style="fill:url(#SVGID_00000066511989386264108060000003199338766028816307_);" d="M2799.732,1977.36l-4.617-24.052
					c-0.463-2.413-2.455-4.235-4.899-4.483l-113.21-11.488c-3.811-0.387-6.862,3.105-5.967,6.829l7.198,29.971
					c0.576,2.398,2.663,4.13,5.127,4.254l110.629,5.569C2797.593,1984.142,2800.412,1980.901,2799.732,1977.36z"/>
				
					<linearGradient id="SVGID_00000022559692149226964970000005059334145192924343_" gradientUnits="userSpaceOnUse" x1="-3978.0549" y1="2128.1516" x2="-3875.0579" y2="2128.1516" gradientTransform="matrix(-1 0 0 1 -1038.0688 0)">
					<stop  offset="0" style="stop-color:#FEBBBA"/>
					<stop  offset="1" style="stop-color:#FF928E"/>
				</linearGradient>
				<path style="fill:url(#SVGID_00000022559692149226964970000005059334145192924343_);" d="M2932.528,2173.926
					c0,0,10.77-44.283,6.425-59.994c-4.344-15.711-12.761-35.911-40.815-31.422c-28.055,4.489-61.149,16.307-61.149,16.307
					s1.672,20.464,22.994,13.862l-13.222,10.231c0,0,1.89,16.385,19.9,7.632l-12.298,13.568c0,0,7.735,13.457,20.985,4.826
					C2888.599,2140.304,2894.951,2179.258,2932.528,2173.926z"/>
			</g>
			
				<linearGradient id="SVGID_00000168811422369087308900000003950077973125160590_" gradientUnits="userSpaceOnUse" x1="2975.6821" y1="2006.4489" x2="2892.2759" y2="1706.1854">
				<stop  offset="0" style="stop-color:#FEBBBA"/>
				<stop  offset="1" style="stop-color:#FF928E"/>
			</linearGradient>
			<path style="fill:url(#SVGID_00000168811422369087308900000003950077973125160590_);" d="M2948.958,1738.883l42.979,124.292
				c0.712,2.059-0.135,4.339-2.042,5.393c-11.716,6.478-53.925,25.201-104.79-7.049c-5.299-3.359-8.906-8.838-9.711-15.061
				l-13.918-107.574H2948.958z"/>
			<g>
				
					<linearGradient id="SVGID_00000127758489867247831870000003057671768145314486_" gradientUnits="userSpaceOnUse" x1="-8394.9531" y1="-4102.9551" x2="-8443.7979" y2="-4264.0576" gradientTransform="matrix(-0.746 -0.6659 -0.6659 0.746 -6164.4043 -803.1727)">
					<stop  offset="0" style="stop-color:#FEBBBA"/>
					<stop  offset="1" style="stop-color:#FF928E"/>
				</linearGradient>
				<path style="fill:url(#SVGID_00000127758489867247831870000003057671768145314486_);" d="M2855.441,1623.785
					c0,0-47.196,88.84-41.145,124.727c6.05,35.887,64.541,33.31,115.617,4.164l35.691-95.928L2855.441,1623.785z"/>
				
					<linearGradient id="SVGID_00000019647269110174308890000005497238946977834924_" gradientUnits="userSpaceOnUse" x1="-8439.0205" y1="-4383.6519" x2="-8398.1621" y2="-4150.6069" gradientTransform="matrix(-0.746 -0.6659 -0.6659 0.746 -6164.4043 -803.1727)">
					<stop  offset="0" style="stop-color:#09005D"/>
					<stop  offset="1" style="stop-color:#1A0F91"/>
				</linearGradient>
				<path style="fill:url(#SVGID_00000019647269110174308890000005497238946977834924_);" d="M2927.655,1705.566
					c-2.076-0.919-2.842-3.459-1.598-5.359c3.781-5.776,10.869-17.561,13.13-27.878c0,0,8.485-5.434-21.594-12.633
					c-30.078-7.2-74.933-18.375-84.361-43.977c-9.192-24.962,14.96-87.736,53.491-37.719c1.466,1.903,4.338,1.945,5.802,0.041
					c6.317-8.221,22.924-25.286,45.98-14.94c21.576,9.681,24.007,25.491,23.71,33.46c-0.087,2.345,2.009,4.167,4.313,3.727
					c10.91-2.08,37.087-3.867,49.306,22.987c10.064,22.119,3.523,34.641-2.435,40.765c-1.93,1.983-1.084,5.25,1.562,6.061
					c7.17,2.194,16.428,8.274,15.501,25.071c-1.282,23.221-27.244,21.175-34.636,20.117c-1.211-0.174-2.431,0.242-3.251,1.15
					c-6.339,7.014-34.894,36.796-65.801,40.386c-2.677,0.31-4.75-2.333-3.874-4.88l13.375-38.88c0.622-1.806-0.243-3.787-1.989-4.56
					L2927.655,1705.566z"/>
				
					<linearGradient id="SVGID_00000041983913941055298640000004325037210644060843_" gradientUnits="userSpaceOnUse" x1="-8444.8838" y1="-4103.7041" x2="-8488.8311" y2="-4248.6523" gradientTransform="matrix(-0.746 -0.6659 -0.6659 0.746 -6164.4043 -803.1727)">
					<stop  offset="0" style="stop-color:#FEBBBA"/>
					<stop  offset="1" style="stop-color:#FF928E"/>
				</linearGradient>
				<path style="fill:url(#SVGID_00000041983913941055298640000004325037210644060843_);" d="M2922.279,1711.085
					c0,0,33.604-23.055,36.059-3.64c2.455,19.415-30.26,28.123-46.465,20.884L2922.279,1711.085z"/>
			</g>
		</g>
		<g>
			<path style="fill:#91B3FA;" d="M1301.797,1136.792l129.14,8.798c6.138,0.531,9.494-6.987,5-11.202l-123.838-91.703
				L1301.797,1136.792z"/>
			<path style="fill:#91B3FA;" d="M564.044,723.5l727.296-4.45c16.652-0.102,30.176,12.237,30.049,27.416l-3.061,366.183
				c-0.128,15.266-14.005,27.448-30.745,26.989l-719.422-19.709c-15.98-0.438-28.745-12.275-28.95-26.848l-4.814-342.025
				C534.185,735.966,547.487,723.601,564.044,723.5z"/>
			<path style="opacity:0.14;fill:#FFFFFF;" d="M586.57,745.898l681.04-3.888c15.593-0.089,28.256,10.691,28.138,23.953
				l-2.866,319.939c-0.12,13.338,11.292,32.102-4.383,31.701l-698.073-25.34c-14.964-0.382-26.917-10.725-27.109-23.457
				l-4.508-298.831C558.61,756.791,571.067,745.987,586.57,745.898z"/>
			<path style="opacity:0.77;fill:#FFFFFF;" d="M1288.499,1117.604l-719.614-19.712c-3.037-0.081-5.445-2.32-5.49-5.092
				l-4.813-342.028c-0.024-1.391,0.536-2.665,1.619-3.675c1.079-1.01,2.465-1.546,4.008-1.553l727.295-4.45
				c1.567,0,2.96,0.525,4.048,1.516c1.1,1.006,1.667,2.284,1.651,3.697l-3.061,366.167
				C1294.125,1115.302,1291.592,1117.604,1288.499,1117.604z M569.183,1092.624l719.404,19.705l2.823-366.068l-727.166,4.564
				L569.183,1092.624z"/>
			<path style="opacity:0.77;fill:#FFFFFF;" d="M605.996,828.658c0,12.955,7.545,23.458,16.852,23.458h618.594
				c9.307,0,16.852-10.502,16.852-23.458c0-12.955-7.545-23.458-16.852-23.458H622.849
				C613.541,805.2,605.996,815.703,605.996,828.658z"/>
			<path style="opacity:0.77;fill:#FFFFFF;" d="M639.878,892.12h579.961c12.618,0,22.848,6.299,22.848,14.069
				s-10.229,14.069-22.848,14.069H639.878c-12.618,0-22.848-6.299-22.848-14.069C617.03,898.419,627.26,892.12,639.878,892.12z"/>
			<path style="opacity:0.77;fill:#FFFFFF;" d="M617.03,970.27c0,7.755,10.21,14.043,22.805,14.043h580.045
				c12.595,0,22.805-6.287,22.805-14.043v-8.681c0-7.889-10.551-14.23-23.359-14.039l-580.045,8.681
				C626.906,956.416,617.03,962.647,617.03,970.27z"/>
			<path style="opacity:0.77;fill:#FFFFFF;" d="M642.165,1014.549h579.961c12.618,0,22.848,6.299,22.848,14.069
				c0,7.77-10.229,14.069-22.848,14.069H642.165c-12.618,0-22.848-6.299-22.848-14.069
				C619.317,1020.847,629.547,1014.549,642.165,1014.549z"/>
		</g>
	</g>
</g>
</svg>
